<?xml version="1.0" encoding="UTF-8"?> <svg xmlns="http://www.w3.org/2000/svg" width="105" height="120" viewBox="0 0 105 120" fill="none"><g clip-path="url(#clip0_4843_16034)"><path d="M17.262 44.0174V41.1428C17.262 39.8676 16.5585 38.8118 15.3825 38.331L15.225 38.2683L15.3825 38.2056C16.4745 37.8083 17.115 36.7735 17.115 35.4146V32.9373C17.115 30.2509 15.6135 28.892 12.6525 28.892H7.30798V48.0522H12.789C15.75 48.0522 17.262 46.6934 17.262 44.007V44.0174ZM11.2875 32.2369H12.264C12.8415 32.2369 13.167 32.6446 13.167 33.3554V35.446C13.167 36.1568 12.8415 36.5644 12.264 36.5644H11.2875V32.2369ZM11.2875 44.7282V39.8362H12.2325C12.9255 39.8362 13.272 40.2334 13.272 41.0279V43.6097C13.272 44.331 12.9465 44.7282 12.3375 44.7282H11.2875Z" fill="black"></path><path d="M23.2365 48.2717C26.229 48.2717 28.161 46.547 28.161 43.8815V28.9024H24.1395V43.777C24.1395 44.5191 23.814 44.9477 23.2365 44.9477C22.659 44.9477 22.302 44.5087 22.302 43.777V28.9024H18.3015V43.8815C18.3015 46.547 20.2335 48.2717 23.226 48.2717H23.2365Z" fill="black"></path><path d="M38.7765 41.3833C38.7765 39.7631 38.283 38.8327 36.939 37.9442L33.7785 35.7178C33.2955 35.3624 33.1275 35.007 33.1275 34.3484V33.1881C33.1275 32.2265 33.6 32.0174 33.999 32.0174C34.398 32.0174 34.8495 32.4355 34.8495 33.1881V35.4669H38.7345V33.0732C38.7345 30.324 36.96 28.6829 33.999 28.6829C31.038 28.6829 29.0955 30.4077 29.0955 33.0732V35.1429C29.0955 36.7631 29.589 37.6934 30.933 38.5819L34.0935 40.8397C34.524 41.1638 34.7445 41.4564 34.7445 42.2091V43.7665C34.7445 44.5192 34.44 44.9373 33.894 44.9373C33.348 44.9373 33.0225 44.7387 33.0225 43.7665V41.1324H29.106V43.8711C29.106 46.6202 30.8805 48.2613 33.8415 48.2613C36.8025 48.2613 38.766 46.5366 38.766 43.8711V41.3728L38.7765 41.3833Z" fill="black"></path><path d="M43.89 28.9024H39.837V48.0627H43.89V28.9024Z" fill="black"></path><path d="M51.996 48.0627H55.5345V28.9024H51.9225V33.9094L51.975 38.0906H51.618L51.6075 38.0383L49.4865 28.9024H45.4545V48.0627H49.077V41.6759L49.0245 37.662H49.3815L51.996 48.0627Z" fill="black"></path><path d="M64.7535 32.446V28.9024H57.1095V48.0627H64.7535V44.5087H61.0575V39.9407H64.2915V36.3972H61.0575V32.446H64.7535Z" fill="black"></path><path d="M75.096 41.3833C75.096 39.7631 74.6025 38.8327 73.2585 37.9442L70.098 35.7178C69.615 35.3624 69.447 35.007 69.447 34.3484V33.1881C69.447 32.2265 69.9195 32.0174 70.3185 32.0174C70.7175 32.0174 71.169 32.4355 71.169 33.1881V35.4669H75.054V33.0732C75.054 30.324 73.2795 28.6829 70.3185 28.6829C67.3575 28.6829 65.415 30.4077 65.415 33.0732V35.1429C65.415 36.7631 65.9085 37.6934 67.2525 38.5819L70.413 40.8397C70.8435 41.1638 71.064 41.4564 71.064 42.2091V43.7665C71.064 44.5192 70.7595 44.9373 70.2135 44.9373C69.6675 44.9373 69.342 44.7387 69.342 43.7665V41.1324H65.4255V43.8711C65.4255 46.6202 67.2 48.2613 70.161 48.2613C73.122 48.2613 75.0855 46.5366 75.0855 43.8711V41.3728L75.096 41.3833Z" fill="black"></path><path d="M80.7555 48.2718C83.748 48.2718 85.68 46.547 85.68 43.8815V41.3833C85.68 39.7631 85.1865 38.8327 83.8425 37.9442L80.682 35.7178C80.199 35.3624 80.031 35.007 80.031 34.3484V33.1881C80.031 32.2265 80.5035 32.0174 80.9025 32.0174C81.3015 32.0174 81.753 32.4355 81.753 33.1881V35.4669H85.638V33.0732C85.638 30.324 83.8635 28.6829 80.9025 28.6829C77.9415 28.6829 75.999 30.4077 75.999 33.0732V35.1429C75.999 36.7631 76.4925 37.6934 77.8365 38.5819L80.997 40.8397C81.4275 41.1638 81.648 41.4564 81.648 42.2091V43.7665C81.648 44.5192 81.3435 44.9373 80.7975 44.9373C80.2515 44.9373 79.926 44.7387 79.926 43.7665V41.1324H76.0095V43.8711C76.0095 46.6202 77.784 48.2613 80.745 48.2613L80.7555 48.2718Z" fill="black"></path><path d="M17.5245 26.446V7.28571H13.503V14.7805H11.3715V7.28571H7.31848V26.446H11.3715V18.324H13.503V26.446H17.5245Z" fill="black"></path><path d="M24.927 22.568L25.3365 26.4355H29.253L26.649 7.27527H20.7795L18.207 26.4355H21.987L22.365 22.568H24.9375H24.927ZM22.932 16.0976L23.3205 12.4077H23.919L24.339 16.0976L24.7275 19.3903H22.533L22.932 16.0871V16.0976Z" fill="black"></path><path d="M36.183 26.446H40.173C39.9315 25.7456 39.9 24.784 39.9 23.9373V19.777C39.9 18.3867 39.3015 17.3833 38.22 16.9651L38.052 16.9024L38.22 16.8397C39.312 16.4425 39.9525 15.4077 39.9525 14.0488V11.331C39.9525 8.64459 38.451 7.28571 35.4795 7.28571H29.967V26.446H33.9675V18.6585H34.881C35.343 18.6585 35.889 18.8676 35.889 19.8502V24.0732C35.889 24.8362 35.9205 25.7979 36.162 26.4564L36.183 26.446ZM35.028 15.2404H33.978V10.7038H35.028C35.595 10.7038 35.931 11.1219 35.931 11.8223V14.1324C35.931 14.8432 35.6055 15.2509 35.028 15.2509V15.2404Z" fill="black"></path><path d="M47.271 7.28571L46.4415 16.0348L46.0845 20.3101H45.6645L45.3075 16.0348L44.4465 7.28571H40.362L43.2285 26.446H48.3105L51.198 7.28571H47.271Z" fill="black"></path><path d="M68.25 26.446H72.24C71.9985 25.7456 71.967 24.784 71.967 23.9373V19.777C71.967 18.3867 71.3685 17.3833 70.287 16.9651L70.119 16.9024L70.287 16.8397C71.379 16.4425 72.0195 15.4077 72.0195 14.0488V11.331C72.0195 8.64459 70.518 7.28571 67.557 7.28571H62.0445V26.446H66.045V18.6585H66.9585C67.4205 18.6585 67.9665 18.8676 67.9665 19.8502V24.0732C67.9665 24.8362 67.998 25.7979 68.2395 26.4564L68.25 26.446ZM67.095 15.2404H66.045V10.7038H67.095C67.662 10.7038 67.998 11.1219 67.998 11.8223V14.1324C67.998 14.8432 67.6725 15.2509 67.095 15.2509V15.2404Z" fill="black"></path><path d="M78.5715 7.28571H73.437V26.446H78.5715C81.564 26.446 83.412 24.7631 83.412 22.0557V11.6864C83.412 8.97909 81.5535 7.29616 78.5715 7.29616V7.28571ZM79.3905 21.9094C79.3905 22.6097 79.0545 23.0279 78.4875 23.0279H77.4375V10.6934H78.4875C79.0545 10.6934 79.3905 11.1115 79.3905 11.8118V21.9094Z" fill="black"></path><path d="M57.0255 22.568L57.435 26.4355H61.3515L58.7475 7.27527H52.878L50.3055 26.4355H54.0855L54.4635 22.568H57.036H57.0255ZM55.0305 16.0976L55.419 12.4077H56.0175L56.4375 16.0976L56.826 19.3903H54.6315L55.0305 16.0871V16.0976Z" fill="black"></path><path d="M44.1525 65.8118L44.562 69.6794H48.4785L45.8745 50.5192H40.005L37.4325 69.6794H41.2125L41.5905 65.8118H44.163H44.1525ZM42.1575 59.3415L42.546 55.6516H43.1445L43.5645 59.3415L43.953 62.6341H41.7585L42.1575 59.331V59.3415Z" fill="black"></path><path d="M22.995 69.6794H26.691V50.5192H21.105L19.992 60.8676H19.6455L18.5115 50.5192H12.9465V69.6794H16.611V62.1638L16.59 58.2021H16.9575V58.2648L18.27 69.6794H21.336L22.68 58.2021H23.0475L22.995 62.1638V69.6794Z" fill="black"></path><path d="M11.3715 50.5192H7.31848V69.6794H11.3715V50.5192Z" fill="black"></path><path d="M58.38 57.669V54.7004C58.38 51.993 56.5635 50.3101 53.6445 50.3101C50.7255 50.3101 48.741 52.0349 48.741 54.7004V65.4983C48.741 68.1638 50.6625 69.8885 53.6445 69.8885C56.6265 69.8885 58.38 68.2056 58.38 65.4983V62.3101H54.4635V65.3833C54.4635 66.1568 54.18 66.554 53.613 66.554C53.046 66.554 52.7415 66.3554 52.7415 65.3833V54.7944C52.7415 53.8328 53.214 53.6237 53.613 53.6237C54.012 53.6237 54.4635 54.0209 54.4635 54.7944V57.6586H58.38V57.669Z" fill="black"></path><path d="M68.3865 50.5192H58.968V54.0627H61.6665V69.6794H65.688V54.0627H68.3865V50.5192Z" fill="black"></path><path d="M38.283 54.7213C38.283 51.9721 36.7395 50.5192 33.8205 50.5192H28.308V69.6794H32.3085V61.9129H33.8205C36.7395 61.9129 38.283 60.4495 38.283 57.6794V54.7213ZM34.251 57.3554C34.251 58.0662 33.9255 58.4739 33.348 58.4739H32.298V53.9373H33.348C33.915 53.9373 34.251 54.3554 34.251 55.0558V57.3659V57.3554Z" fill="black"></path><path d="M52.5 119.895L51.765 119.54C31.626 109.683 18.543 100.871 10.5945 91.8084C3.2655 83.446 0 74.6551 0 63.2927V0H105V63.2927C105 74.6551 101.734 83.446 94.4055 91.7979C86.457 100.861 73.374 109.672 53.235 119.53L52.5 119.885V119.895ZM3.318 3.30314V63.2927C3.318 73.7979 6.3315 81.9199 13.0935 89.6237C20.643 98.2369 33.18 106.693 52.5 116.206C71.82 106.693 84.357 98.2369 91.9065 89.6237C98.6685 81.9094 101.682 73.7875 101.682 63.2927V3.30314H3.318Z" fill="black"></path></g><defs><clipPath id="clip0_4843_16034"><rect width="105" height="120" fill="white"></rect></clipPath></defs></svg> 